#!OML:ASF F:\VICON\USERDATA\INSTALL\rory3\rory3.ASF
:FULLY-SPECIFIED
:DEGREES
3859
root 14.1605 17.8609 -2.49761 13.4389 -23.629 12.737
lowerback 16.4744 -0.559747 2.79358
upperback 6.23138 -0.126955 7.4498
thorax -2.56093 -0.158838 6.37612
lowerneck -7.48749 -10.5847 -11.3546
upperneck 31.1446 -14.5159 3.98834
head 12.7685 -7.22902 1.44407
rclavicle -2.8625e-014 -5.40694e-014
rhumerus 3.76107 -6.37333 -89.4243
rradius 37.8719
rwrist -32.7828
rhand -34.6872 -24.9405
rfingers 7.12502
rthumb -7.84284 -54.775
lclavicle -2.8625e-014 -5.40694e-014
lhumerus -12.0759 -43.4098 99.2597
lradius 50.9062
lwrist 22.741
lhand -6.7076 51.2073
lfingers 7.12502
lthumb 19.152 -1719.72
rfemur -41.7429 -2.26275 7.02588
rtibia 39.9014
rfoot -14.8109 -6.11138
rtoes 12.2121
lfemur -22.5113 0.652984 -28.7022
ltibia 16.7069
lfoot -6.20667 -13.9158
ltoes -10.8895
3860
root 14.1125 17.8668 -2.51805 13.7012 -23.6325 12.7549
lowerback 16.3975 -0.519538 2.88025
upperback 6.12784 -0.0536045 7.56065
thorax -2.63664 -0.12119 6.43358
lowerneck -7.41215 -10.6427 -11.5389
upperneck 31.1818 -14.6274 4.14607
head 12.8122 -7.27921 1.51653
rclavicle 7.63333e-014 -3.18055e-014
rhumerus 2.62813 -4.96381 -89.9215
rradius 37.8259
rwrist -33.8631
rhand -35.1032 -25.0027
rfingers 7.12502
rthumb -8.24436 -54.8218
lclavicle 7.63333e-014 -3.18055e-014
lhumerus -13.4301 -42.8136 99.7277
lradius 50.2721
lwrist 23.0327
lhand -6.61875 51.3919
lfingers 7.12502
lthumb 19.2375 -1719.54
rfemur -41.9401 -2.0933 7.10138
rtibia 39.7114
rfoot -14.772 -6.14197
rtoes 12.972
lfemur -22.8986 0.523121 -28.5312
ltibia 16.8685
lfoot -6.23848 -13.5016
ltoes -12.1628
3861
root 14.0649 17.8716 -2.53828 14.1725 -23.8565 12.6404
lowerback 16.0813 -0.391078 2.97596
upperback 6.08636 0.110738 7.67023
thorax -2.52747 -0.040739 6.46024
lowerneck -7.40234 -10.7081 -11.6426
upperneck 31.1587 -14.7425 4.27987
head 12.8346 -7.32336 1.5643
rclavicle -6.36111e-015 -8.5875e-014
rhumerus 1.6337 -3.41862 -90.4077
rradius 37.7432
rwrist -34.641
rhand -35.4504 -25.0197
rfingers 7.12502
rthumb -8.57945 -54.8254
lclavicle -6.36111e-015 -8.5875e-014
lhumerus -14.5671 -42.2007 99.9362
lradius 49.6806
lwrist 22.8119
lhand -5.73041 51.2845
lfingers 7.12502
lthumb 20.0915 -1719.73
rfemur -42.3995 -1.96375 7.37102
rtibia 39.5042
rfoot -14.5191 -6.05534
rtoes 13.2738
lfemur -23.5071 0.566048 -28.2838
ltibia 17.0736
lfoot -6.2817 -12.9694
ltoes -13.0008
3862
root 14.0154 17.8803 -2.54308 14.2163 -24.2143 12.6215
lowerback 15.9725 -0.216751 3.01292
upperback 6.24714 0.318087 7.70135
thorax -2.31698 0.0575378 6.43062
lowerneck -7.52948 -10.7776 -11.6742
upperneck 31.0894 -14.8751 4.47748
head 12.8663 -7.35614 1.61459
rclavicle 2.22639e-014 -1.27222e-014
rhumerus 0.850133 -2.29506 -90.992
rradius 37.4647
rwrist -34.4885
rhand -35.1582 -25.5337
rfingers 7.12502
rthumb -8.29746 -55.3507
lclavicle 2.22639e-014 -1.27222e-014
lhumerus -15.6064 -41.8934 99.9947
lradius 49.204
lwrist 22.4341
lhand -5.35321 51.4197
lfingers 7.12502
lthumb 20.454 -1719.64
rfemur -42.4155 -1.70699 7.53069
rtibia 39.2878
rfoot -14.3418 -5.96509
rtoes 13.2893
lfemur -23.6486 0.762426 -28.1658
ltibia 17.3644
lfoot -6.56621 -12.3875
ltoes -14.1942
3863
root 13.9685 17.8862 -2.56184 14.2335 -24.2206 12.7134
lowerback 16.0615 -0.146522 3.07159
upperback 6.31512 0.418575 7.7185
thorax -2.30037 0.106439 6.39852
lowerneck -7.69274 -10.8464 -11.6066
upperneck 31.0316 -15.0192 4.66393
head 12.9007 -7.38332 1.64158
rclavicle -4.45278e-014 1.27222e-014
rhumerus 0.138107 -1.37746 -91.7011
rradius 37.138
rwrist -34.3317
rhand -34.3906 -26.0797
rfingers 7.12502
rthumb -7.55655 -55.9247
lclavicle -4.45278e-014 1.27222e-014
lhumerus -16.7331 -41.8067 100.064
lradius 48.9248
lwrist 22.3587
lhand -5.80544 51.6029
lfingers 7.12502
lthumb 20.0194 -1719.41
rfemur -42.3961 -1.55483 7.58668
rtibia 39.0801
rfoot -14.2621 -6.18522
rtoes 13.0772
lfemur -23.8047 0.779695 -28.1058
ltibia 17.5498
lfoot -6.66582 -11.9568
ltoes -15.2577
3864
root 13.9242 17.8903 -2.58702 14.3968 -24.0949 12.7653
lowerback 16.1317 -0.0870594 3.19706
upperback 6.24383 0.529555 7.78042
thorax -2.42266 0.16354 6.37589
lowerneck -7.64778 -10.9482 -11.4673
upperneck 30.9373 -15.1854 4.6604
head 12.854 -7.44013 1.59635
rclavicle -2.8625e-014 6.04305e-014
rhumerus -0.786691 -0.263184 -92.2741
rradius 37.1038
rwrist -35.0294
rhand -34.1727 -26.4926
rfingers 7.12502
rthumb -7.34624 -56.3451
lclavicle -2.8625e-014 6.04305e-014
lhumerus -18.0079 -41.7707 100.362
lradius 48.6059
lwrist 22.1543
lhand -5.92151 51.547
lfingers 7.12502
lthumb 19.9078 -1719.45
rfemur -42.5317 -1.49426 7.69872
rtibia 38.9269
rfoot -14.2042 -6.45418
rtoes 12.3755
lfemur -24.0812 0.661423 -27.9787
ltibia 17.6368
lfoot -6.64898 -11.4501
ltoes -16.653
